<svg xmlns="http://www.w3.org/2000/svg" id="Component_51_9" width="200" height="28.879" viewBox="0 0 200 28.879">
    <defs>
        <clipPath id="clip-path">
            <path id="Path_116096" d="M125.758 80h43.29v28.879h-43.29z" clip-rule="evenodd" transform="translate(-125.758 -80)"/>
        </clipPath>
        <style>
            .cls-4,.cls-5,.cls-6,.cls-7,.cls-8,.cls-9{fill-rule:evenodd}.cls-3{clip-path:url(#clip-path)}.cls-4{fill:#f79410}.cls-5{fill:#ff5f00}.cls-6{fill:#eb001b}.cls-7{fill:#1a1f71}.cls-8{fill:#b50041}.cls-9{fill:#00204a}
        </style>
    </defs>
    <g id="mastercard">
        <g id="mastercard-2" class="cls-3">
            <path id="Path_116092" d="M424.394 231.248v-.52h-.135l-.156.356-.156-.356h-.136v.52h.1v-.391l.147.338h.1l.146-.339v.393h.1zm-.858 0v-.431h.173v-.088h-.443v.088h.173v.431z" class="cls-4" transform="translate(-381.517 -209.576)"/>
            <path id="Path_116093" d="M250.017 121.422H238.31v-21.039h11.707z" class="cls-5" transform="translate(-222.515 -97.523)"/>
            <path id="Path_116094" d="M142.295 93.38a13.359 13.359 0 0 1 5.11-10.52 13.38 13.38 0 1 0 0 21.039 13.358 13.358 0 0 1-5.11-10.519" class="cls-6" transform="translate(-125.758 -80)"/>
            <path id="Path_116095" d="M301.665 93.38a13.38 13.38 0 0 1-21.648 10.52 13.381 13.381 0 0 0 0-21.039 13.379 13.379 0 0 1 21.648 10.52" class="cls-4" transform="translate(-258.369 -80)"/>
        </g>
    </g>
    <g id="visa-logo_logotyp.us" transform="translate(67.532 7.524)">
        <path id="visa-logo_logotyp.us-2" d="M102.389 139.884c-.025 1.947 1.736 3.034 3.061 3.68 1.362.663 1.82 1.088 1.815 1.681-.01.907-1.087 1.308-2.094 1.323a7.309 7.309 0 0 1-3.592-.854l-.633 2.962a10.53 10.53 0 0 0 3.889.718c3.674 0 6.077-1.813 6.09-4.625.014-3.568-4.936-3.766-4.9-5.361.012-.484.473-1 1.485-1.131a6.585 6.585 0 0 1 3.449.6l.615-2.866a9.373 9.373 0 0 0-3.273-.6c-3.458 0-5.89 1.838-5.91 4.469m15.091-4.222a1.594 1.594 0 0 0-1.488.992l-5.248 12.53h3.671l.731-2.019h4.486l.424 2.019h3.235l-2.823-13.522zm.513 3.653l1.059 5.077h-2.9zm-20.055-3.653l-2.894 13.522h3.5l2.892-13.522zm-5.175 0l-3.641 9.2-1.473-7.826a1.631 1.631 0 0 0-1.613-1.378h-5.955l-.083.393a14.56 14.56 0 0 1 3.451 1.15 1.48 1.48 0 0 1 .831 1.188l2.79 10.791h3.7l5.668-13.522z" class="cls-7" transform="translate(-80 -135.415)"/>
    </g>
    <g id="mastercard-3">
        <g id="mastercard-4" class="cls-3">
            <path id="Path_116092-2" d="M424.394 231.248v-.52h-.135l-.156.356-.156-.356h-.136v.52h.1v-.391l.147.338h.1l.146-.339v.393h.1zm-.858 0v-.431h.173v-.088h-.443v.088h.173v.431z" class="cls-4" transform="translate(-381.517 -209.576)"/>
            <path id="Path_116093-2" d="M250.017 121.422H238.31v-21.039h11.707z" class="cls-5" transform="translate(-222.515 -97.523)"/>
            <path id="Path_116094-2" d="M142.295 93.38a13.359 13.359 0 0 1 5.11-10.52 13.38 13.38 0 1 0 0 21.039 13.358 13.358 0 0 1-5.11-10.519" class="cls-6" transform="translate(-125.758 -80)"/>
            <path id="Path_116095-2" d="M301.665 93.38a13.38 13.38 0 0 1-21.648 10.52 13.381 13.381 0 0 0 0-21.039 13.379 13.379 0 0 1 21.648 10.52" class="cls-4" transform="translate(-258.369 -80)"/>
        </g>
    </g>
    <g id="Component_111_1" transform="translate(135.065 5.792)">
        <g id="Group_56710">
            <g id="Group_56709" transform="translate(2.948)">
                <path id="Path_116097" d="M97.484 247.126c.851-.641 1.615-1.769 2.538-2.492a11.727 11.727 0 0 1 2.169 1.477c-1.312 1.463-2.727 2.773-4.2 4.246-.581.581-1.177 1.735-2.4 1.338-.467-.152-1.076-.938-1.477-1.338-1.4-1.4-2.908-2.9-4.153-4.246a10.724 10.724 0 0 1 2.169-1.477c.917.806 1.677 1.769 2.63 2.538.084-.674-.112-1.207 0-1.8a1.4 1.4 0 0 1 2.723.138c.083.503-.057.89.001 1.616z" class="cls-8" transform="translate(-89.962 -244.372)"/>
            </g>
            <path id="Path_116098" d="M234.924 261.085a16.619 16.619 0 0 0 1.661 1.523c-.534.589-1.145 1.1-1.707 1.661-.633-.49-1.194-1.051-1.8-1.569-1.837 1.252-5.051 1.159-6.876.462a6.466 6.466 0 0 1-3.876-4.43c-1.378-4.934 1.136-9.6 6.091-9.968 4.852-.357 7.847 2.5 8.076 6.876a7.788 7.788 0 0 1-1.569 5.445zm-5.261-9.737c-3.034-.217-4.318 1.915-4.43 4.476-.109 2.493.945 5.008 3.415 5.261a4.345 4.345 0 0 0 2.215-.323c-.089-.214-.405-.428-.692-.692-.149-.137-.792-.568-.785-.738 0-.116.3-.306.415-.415.158-.152.363-.279.461-.369.168-.154.646-.839.831-.831.048 0 .246.3.323.369.446.408.743.608 1.154.969 1.43-3.234.504-7.463-2.906-7.707z" class="cls-9" transform="translate(-199.396 -248.085)"/>
            <path id="Path_116099" d="M332.824 265.8v-9.773c1.706 2.635 3.573 5.8 5.307 8.63a6.354 6.354 0 0 0 .739 1.143h3.23v-14.069h-3c-.108 3.123-.015 6.445-.046 9.645-2.012-3.187-3.877-6.522-5.953-9.645h-3.23a.126.126 0 0 0-.092.138V265.8z" class="cls-9" transform="translate(-291.204 -250.638)"/>
            <path id="Path_116100" d="M422.7 251.524c4.264.286 10.226-1 11.721 2.03.8 1.618.148 4.073-1.477 4.476a3.74 3.74 0 0 1 1.892 1.569 4.556 4.556 0 0 1-.046 3.738c-1.6 3.184-7.595 2.13-12.137 2.307v-13.981c-.007-.063-.011-.131.047-.139zm3.046 2.676v2.861c1.607-.224 4.185.42 5.307-.323a1.522 1.522 0 0 0 .462-1.8c-.618-1.474-3.751-.649-5.722-.877-.059.009-.055.074-.051.139zm0 5.4v3.507c1.891-.181 4.9.477 5.814-.692a2.19 2.19 0 0 0 .231-1.984c-.666-1.582-3.867-.754-6-.969-.057.007-.053.073-.049.138z" class="cls-9" transform="translate(-370.278 -250.431)"/>
            <path id="Path_116101" d="M71.033 269.914c.774-.933 1.766-1.649 2.584-2.538h-3.368a8.448 8.448 0 0 1-.046-2.723h3.369c-.681-.857-1.742-1.734-2.538-2.63a8.132 8.132 0 0 1 1.477-2.215c1.261 1.245 2.78 2.734 4.246 4.2.643.643 1.6 1.212 1.292 2.353-.141.526-.866 1.1-1.292 1.523l-3.507 3.507c-.127.127-.65.691-.692.692-.211.005-.689-.808-.831-1.015a11.25 11.25 0 0 1-.694-1.154z" class="cls-9" transform="translate(-70.115 -257.515)"/>
            <path id="Path_116102" d="M145.192 261.977c-.788.965-1.757 1.75-2.584 2.676h3.369a7.716 7.716 0 0 1 0 2.723h-3.323c.628.834 1.886 1.682 2.492 2.538a8.982 8.982 0 0 1-1.431 2.169c-1.316-1.248-2.753-2.753-4.153-4.153-.6-.6-1.836-1.308-1.385-2.492a6.282 6.282 0 0 1 1.292-1.431c1.392-1.392 2.939-2.872 4.2-4.2a8.366 8.366 0 0 1 1.523 2.17z" class="cls-9" transform="translate(-127.984 -257.515)"/>
            <path id="Path_116103" d="M102.191 313.784a10.6 10.6 0 0 1-2.169 1.431c-.954-.739-1.63-1.754-2.538-2.538v3.369a10.327 10.327 0 0 1-2.723 0v-3.323c-.85.642-1.78 1.85-2.63 2.492a9.078 9.078 0 0 1-2.169-1.431c1.2-1.349 2.69-2.736 4.061-4.107.589-.589 1.377-1.939 2.584-1.431a6.761 6.761 0 0 1 1.477 1.338c1.405 1.406 2.788 2.78 4.107 4.2z" class="cls-9" transform="translate(-87.014 -298.662)"/>
        </g>
    </g>
    <g id="visa-logo_logotyp.us-3" transform="translate(67.532 7.524)">
        <path id="visa-logo_logotyp.us-4" d="M102.389 139.884c-.025 1.947 1.736 3.034 3.061 3.68 1.362.663 1.82 1.088 1.815 1.681-.01.907-1.087 1.308-2.094 1.323a7.309 7.309 0 0 1-3.592-.854l-.633 2.962a10.53 10.53 0 0 0 3.889.718c3.674 0 6.077-1.813 6.09-4.625.014-3.568-4.936-3.766-4.9-5.361.012-.484.473-1 1.485-1.131a6.585 6.585 0 0 1 3.449.6l.615-2.866a9.373 9.373 0 0 0-3.273-.6c-3.458 0-5.89 1.838-5.91 4.469m15.091-4.222a1.594 1.594 0 0 0-1.488.992l-5.248 12.53h3.671l.731-2.019h4.486l.424 2.019h3.235l-2.823-13.522zm.513 3.653l1.059 5.077h-2.9zm-20.055-3.653l-2.894 13.522h3.5l2.892-13.522zm-5.175 0l-3.641 9.2-1.473-7.826a1.631 1.631 0 0 0-1.613-1.378h-5.955l-.083.393a14.56 14.56 0 0 1 3.451 1.15 1.48 1.48 0 0 1 .831 1.188l2.79 10.791h3.7l5.668-13.522z" class="cls-7" transform="translate(-80 -135.415)"/>
    </g>
    <g id="Component_110_1" transform="translate(135.065 5.792)">
        <g id="Group_56710-2">
            <g id="Group_56709-2" transform="translate(2.948)">
                <path id="Path_116097-2" d="M97.484 247.126c.851-.641 1.615-1.769 2.538-2.492a11.727 11.727 0 0 1 2.169 1.477c-1.312 1.463-2.727 2.773-4.2 4.246-.581.581-1.177 1.735-2.4 1.338-.467-.152-1.076-.938-1.477-1.338-1.4-1.4-2.908-2.9-4.153-4.246a10.724 10.724 0 0 1 2.169-1.477c.917.806 1.677 1.769 2.63 2.538.084-.674-.112-1.207 0-1.8a1.4 1.4 0 0 1 2.723.138c.083.503-.057.89.001 1.616z" class="cls-8" transform="translate(-89.962 -244.372)"/>
            </g>
            <path id="Path_116098-2" d="M234.924 261.085a16.619 16.619 0 0 0 1.661 1.523c-.534.589-1.145 1.1-1.707 1.661-.633-.49-1.194-1.051-1.8-1.569-1.837 1.252-5.051 1.159-6.876.462a6.466 6.466 0 0 1-3.876-4.43c-1.378-4.934 1.136-9.6 6.091-9.968 4.852-.357 7.847 2.5 8.076 6.876a7.788 7.788 0 0 1-1.569 5.445zm-5.261-9.737c-3.034-.217-4.318 1.915-4.43 4.476-.109 2.493.945 5.008 3.415 5.261a4.345 4.345 0 0 0 2.215-.323c-.089-.214-.405-.428-.692-.692-.149-.137-.792-.568-.785-.738 0-.116.3-.306.415-.415.158-.152.363-.279.461-.369.168-.154.646-.839.831-.831.048 0 .246.3.323.369.446.408.743.608 1.154.969 1.43-3.234.504-7.463-2.906-7.707z" class="cls-9" transform="translate(-199.396 -248.085)"/>
            <path id="Path_116099-2" d="M332.824 265.8v-9.773c1.706 2.635 3.573 5.8 5.307 8.63a6.354 6.354 0 0 0 .739 1.143h3.23v-14.069h-3c-.108 3.123-.015 6.445-.046 9.645-2.012-3.187-3.877-6.522-5.953-9.645h-3.23a.126.126 0 0 0-.092.138V265.8z" class="cls-9" transform="translate(-291.204 -250.638)"/>
            <path id="Path_116100-2" d="M422.7 251.524c4.264.286 10.226-1 11.721 2.03.8 1.618.148 4.073-1.477 4.476a3.74 3.74 0 0 1 1.892 1.569 4.556 4.556 0 0 1-.046 3.738c-1.6 3.184-7.595 2.13-12.137 2.307v-13.981c-.007-.063-.011-.131.047-.139zm3.046 2.676v2.861c1.607-.224 4.185.42 5.307-.323a1.522 1.522 0 0 0 .462-1.8c-.618-1.474-3.751-.649-5.722-.877-.059.009-.055.074-.051.139zm0 5.4v3.507c1.891-.181 4.9.477 5.814-.692a2.19 2.19 0 0 0 .231-1.984c-.666-1.582-3.867-.754-6-.969-.057.007-.053.073-.049.138z" class="cls-9" transform="translate(-370.278 -250.431)"/>
            <path id="Path_116101-2" d="M71.033 269.914c.774-.933 1.766-1.649 2.584-2.538h-3.368a8.448 8.448 0 0 1-.046-2.723h3.369c-.681-.857-1.742-1.734-2.538-2.63a8.132 8.132 0 0 1 1.477-2.215c1.261 1.245 2.78 2.734 4.246 4.2.643.643 1.6 1.212 1.292 2.353-.141.526-.866 1.1-1.292 1.523l-3.507 3.507c-.127.127-.65.691-.692.692-.211.005-.689-.808-.831-1.015a11.25 11.25 0 0 1-.694-1.154z" class="cls-9" transform="translate(-70.115 -257.515)"/>
            <path id="Path_116102-2" d="M145.192 261.977c-.788.965-1.757 1.75-2.584 2.676h3.369a7.716 7.716 0 0 1 0 2.723h-3.323c.628.834 1.886 1.682 2.492 2.538a8.982 8.982 0 0 1-1.431 2.169c-1.316-1.248-2.753-2.753-4.153-4.153-.6-.6-1.836-1.308-1.385-2.492a6.282 6.282 0 0 1 1.292-1.431c1.392-1.392 2.939-2.872 4.2-4.2a8.366 8.366 0 0 1 1.523 2.17z" class="cls-9" transform="translate(-127.984 -257.515)"/>
            <path id="Path_116103-2" d="M102.191 313.784a10.6 10.6 0 0 1-2.169 1.431c-.954-.739-1.63-1.754-2.538-2.538v3.369a10.327 10.327 0 0 1-2.723 0v-3.323c-.85.642-1.78 1.85-2.63 2.492a9.078 9.078 0 0 1-2.169-1.431c1.2-1.349 2.69-2.736 4.061-4.107.589-.589 1.377-1.939 2.584-1.431a6.761 6.761 0 0 1 1.477 1.338c1.405 1.406 2.788 2.78 4.107 4.2z" class="cls-9" transform="translate(-87.014 -298.662)"/>
        </g>
    </g>
</svg>
